<mxfile host="65bd71144e">
    <diagram id="uXhCRkF-sBUdpy1esmeZ" name="mockup">
        <mxGraphModel dx="663" dy="323" grid="1" gridSize="10" guides="1" tooltips="1" connect="1" arrows="1" fold="1" page="1" pageScale="1" pageWidth="850" pageHeight="1100" math="0" shadow="0">
            <root>
                <mxCell id="8YA34O1U85UGI9Kl9Xbd-0"/>
                <mxCell id="8YA34O1U85UGI9Kl9Xbd-1" parent="8YA34O1U85UGI9Kl9Xbd-0"/>
                <mxCell id="8YA34O1U85UGI9Kl9Xbd-2" value="" style="rounded=0;whiteSpace=wrap;html=1;" parent="8YA34O1U85UGI9Kl9Xbd-1" vertex="1">
                    <mxGeometry x="40" y="40" width="440" height="320" as="geometry"/>
                </mxCell>
                <mxCell id="8YA34O1U85UGI9Kl9Xbd-4" value="Avatar" style="rounded=0;whiteSpace=wrap;html=1;" parent="8YA34O1U85UGI9Kl9Xbd-1" vertex="1">
                    <mxGeometry x="70" y="65" width="110" height="110" as="geometry"/>
                </mxCell>
                <mxCell id="8YA34O1U85UGI9Kl9Xbd-5" value="Name" style="text;html=1;strokeColor=none;fillColor=none;align=center;verticalAlign=middle;whiteSpace=wrap;rounded=0;" parent="8YA34O1U85UGI9Kl9Xbd-1" vertex="1">
                    <mxGeometry x="210" y="80" width="60" height="30" as="geometry"/>
                </mxCell>
                <mxCell id="8YA34O1U85UGI9Kl9Xbd-6" value="Gender" style="text;html=1;strokeColor=none;fillColor=none;align=center;verticalAlign=middle;whiteSpace=wrap;rounded=0;" parent="8YA34O1U85UGI9Kl9Xbd-1" vertex="1">
                    <mxGeometry x="210" y="120" width="60" height="30" as="geometry"/>
                </mxCell>
                <mxCell id="8YA34O1U85UGI9Kl9Xbd-7" value="" style="endArrow=none;html=1;exitX=0;exitY=0.5;exitDx=0;exitDy=0;entryX=1;entryY=0.5;entryDx=0;entryDy=0;" parent="8YA34O1U85UGI9Kl9Xbd-1" source="8YA34O1U85UGI9Kl9Xbd-2" target="8YA34O1U85UGI9Kl9Xbd-2" edge="1">
                    <mxGeometry width="50" height="50" relative="1" as="geometry">
                        <mxPoint x="150" y="270" as="sourcePoint"/>
                        <mxPoint x="200" y="220" as="targetPoint"/>
                    </mxGeometry>
                </mxCell>
                <mxCell id="8YA34O1U85UGI9Kl9Xbd-8" value="Photo" style="ellipse;whiteSpace=wrap;html=1;aspect=fixed;" parent="8YA34O1U85UGI9Kl9Xbd-1" vertex="1">
                    <mxGeometry x="85" y="230" width="80" height="80" as="geometry"/>
                </mxCell>
                <mxCell id="8YA34O1U85UGI9Kl9Xbd-9" value="Photo" style="ellipse;whiteSpace=wrap;html=1;aspect=fixed;" parent="8YA34O1U85UGI9Kl9Xbd-1" vertex="1">
                    <mxGeometry x="200" y="230" width="80" height="80" as="geometry"/>
                </mxCell>
                <mxCell id="8YA34O1U85UGI9Kl9Xbd-10" value="Photo" style="ellipse;whiteSpace=wrap;html=1;aspect=fixed;" parent="8YA34O1U85UGI9Kl9Xbd-1" vertex="1">
                    <mxGeometry x="320" y="230" width="80" height="80" as="geometry"/>
                </mxCell>
                <mxCell id="8YA34O1U85UGI9Kl9Xbd-11" value="Name" style="text;html=1;strokeColor=none;fillColor=none;align=center;verticalAlign=middle;whiteSpace=wrap;rounded=0;" parent="8YA34O1U85UGI9Kl9Xbd-1" vertex="1">
                    <mxGeometry x="95" y="310" width="60" height="30" as="geometry"/>
                </mxCell>
                <mxCell id="8YA34O1U85UGI9Kl9Xbd-12" value="Name" style="text;html=1;strokeColor=none;fillColor=none;align=center;verticalAlign=middle;whiteSpace=wrap;rounded=0;" parent="8YA34O1U85UGI9Kl9Xbd-1" vertex="1">
                    <mxGeometry x="210" y="310" width="60" height="30" as="geometry"/>
                </mxCell>
                <mxCell id="8YA34O1U85UGI9Kl9Xbd-13" value="Name" style="text;html=1;strokeColor=none;fillColor=none;align=center;verticalAlign=middle;whiteSpace=wrap;rounded=0;" parent="8YA34O1U85UGI9Kl9Xbd-1" vertex="1">
                    <mxGeometry x="330" y="310" width="60" height="30" as="geometry"/>
                </mxCell>
            </root>
        </mxGraphModel>
    </diagram>
    <diagram id="o5cZdWXctOcK0XOI-nIs" name="restful-graphql">
        <mxGraphModel dx="663" dy="323" grid="1" gridSize="10" guides="1" tooltips="1" connect="1" arrows="1" fold="1" page="1" pageScale="1" pageWidth="850" pageHeight="1100" math="0" shadow="0">
            <root>
                <mxCell id="0"/>
                <mxCell id="1" parent="0"/>
                <mxCell id="WJi31UQ09e9Etai3pT5t-5" style="edgeStyle=none;rounded=0;orthogonalLoop=1;jettySize=auto;html=1;entryX=0;entryY=0.5;entryDx=0;entryDy=0;" parent="1" source="WJi31UQ09e9Etai3pT5t-1" target="WJi31UQ09e9Etai3pT5t-3" edge="1">
                    <mxGeometry relative="1" as="geometry"/>
                </mxCell>
                <mxCell id="WJi31UQ09e9Etai3pT5t-6" style="edgeStyle=none;rounded=0;orthogonalLoop=1;jettySize=auto;html=1;entryX=0;entryY=0.5;entryDx=0;entryDy=0;" parent="1" source="WJi31UQ09e9Etai3pT5t-1" target="WJi31UQ09e9Etai3pT5t-2" edge="1">
                    <mxGeometry relative="1" as="geometry"/>
                </mxCell>
                <mxCell id="WJi31UQ09e9Etai3pT5t-1" value="UI" style="rounded=1;whiteSpace=wrap;html=1;" parent="1" vertex="1">
                    <mxGeometry x="50" y="100" width="120" height="60" as="geometry"/>
                </mxCell>
                <mxCell id="WJi31UQ09e9Etai3pT5t-2" value="Profile" style="rounded=1;whiteSpace=wrap;html=1;" parent="1" vertex="1">
                    <mxGeometry x="540" y="45" width="120" height="60" as="geometry"/>
                </mxCell>
                <mxCell id="WJi31UQ09e9Etai3pT5t-3" value="Pet" style="rounded=1;whiteSpace=wrap;html=1;" parent="1" vertex="1">
                    <mxGeometry x="540" y="155" width="120" height="60" as="geometry"/>
                </mxCell>
                <mxCell id="WJi31UQ09e9Etai3pT5t-7" style="edgeStyle=none;rounded=0;orthogonalLoop=1;jettySize=auto;html=1;entryX=0;entryY=0.5;entryDx=0;entryDy=0;" parent="1" source="WJi31UQ09e9Etai3pT5t-9" target="WJi31UQ09e9Etai3pT5t-12" edge="1">
                    <mxGeometry relative="1" as="geometry"/>
                </mxCell>
                <mxCell id="WJi31UQ09e9Etai3pT5t-9" value="UI" style="rounded=1;whiteSpace=wrap;html=1;" parent="1" vertex="1">
                    <mxGeometry x="50" y="370" width="120" height="60" as="geometry"/>
                </mxCell>
                <mxCell id="WJi31UQ09e9Etai3pT5t-10" value="Profile" style="rounded=1;whiteSpace=wrap;html=1;" parent="1" vertex="1">
                    <mxGeometry x="540" y="315" width="120" height="60" as="geometry"/>
                </mxCell>
                <mxCell id="WJi31UQ09e9Etai3pT5t-11" value="Pet" style="rounded=1;whiteSpace=wrap;html=1;" parent="1" vertex="1">
                    <mxGeometry x="540" y="425" width="120" height="60" as="geometry"/>
                </mxCell>
                <mxCell id="WJi31UQ09e9Etai3pT5t-13" style="edgeStyle=none;rounded=0;orthogonalLoop=1;jettySize=auto;html=1;entryX=0;entryY=0.5;entryDx=0;entryDy=0;" parent="1" source="WJi31UQ09e9Etai3pT5t-12" target="WJi31UQ09e9Etai3pT5t-10" edge="1">
                    <mxGeometry relative="1" as="geometry"/>
                </mxCell>
                <mxCell id="WJi31UQ09e9Etai3pT5t-14" style="edgeStyle=none;rounded=0;orthogonalLoop=1;jettySize=auto;html=1;entryX=0;entryY=0.5;entryDx=0;entryDy=0;" parent="1" source="WJi31UQ09e9Etai3pT5t-12" target="WJi31UQ09e9Etai3pT5t-11" edge="1">
                    <mxGeometry relative="1" as="geometry"/>
                </mxCell>
                <mxCell id="WJi31UQ09e9Etai3pT5t-12" value="BFF" style="rounded=1;whiteSpace=wrap;html=1;" parent="1" vertex="1">
                    <mxGeometry x="270" y="370" width="120" height="60" as="geometry"/>
                </mxCell>
            </root>
        </mxGraphModel>
    </diagram>
</mxfile>
